<?xml version="1.0" encoding="utf-8"?>
<svg viewBox="0 0 500 500" xmlns="http://www.w3.org/2000/svg">
  <path d="M 409.25 293.315 L 262.973 44.971 C 262.263 43.745 261.238 42.722 259.998 42.01 C 258.758 41.295 257.35 40.914 255.911 40.906 C 254.473 40.898 253.059 41.26 251.811 41.958 C 250.563 42.655 249.524 43.663 248.801 44.882 L 204.99 119.297 C 203.557 121.733 202.801 124.496 202.801 127.307 C 202.801 130.122 203.557 132.884 204.99 135.321 L 300.372 297.334 C 301.808 299.77 303.875 301.796 306.363 303.202 C 308.851 304.608 311.673 305.347 314.545 305.345 L 402.164 305.345 C 403.597 305.342 405.006 304.967 406.246 304.262 C 407.488 303.558 408.519 302.547 409.237 301.328 C 409.955 300.11 410.333 298.729 410.335 297.323 C 410.335 295.917 409.963 294.536 409.25 293.315 Z" fill="#0C0C0E" style=""/>
  <path d="M 25.816 423.112 L 172.096 174.765 C 172.814 173.55 173.844 172.538 175.087 171.836 C 176.327 171.135 177.735 170.765 179.171 170.765 C 180.604 170.765 182.013 171.135 183.255 171.836 C 184.495 172.538 185.529 173.55 186.244 174.765 L 230.077 249.112 C 231.512 251.554 232.266 254.32 232.266 257.137 C 232.266 259.954 231.512 262.719 230.077 265.158 L 134.694 427.174 C 133.264 429.61 131.2 431.636 128.717 433.042 C 126.232 434.448 123.412 435.187 120.543 435.185 L 32.902 435.185 C 31.458 435.193 30.039 434.823 28.788 434.119 C 27.537 433.412 26.498 432.395 25.778 431.168 C 25.057 429.942 24.682 428.55 24.69 427.136 C 24.696 425.719 25.084 424.332 25.816 423.112 Z" fill="#0C0C0E" style=""/>
  <path d="M 186.225 435.13 L 478.779 435.13 C 480.215 435.13 481.624 434.758 482.866 434.054 C 484.109 433.349 485.14 432.335 485.855 431.117 C 486.57 429.899 486.948 428.515 486.945 427.109 C 486.942 425.7 486.564 424.319 485.844 423.103 L 442.079 348.71 C 440.643 346.271 438.577 344.248 436.089 342.842 C 433.6 341.433 430.778 340.696 427.907 340.699 L 237.141 340.699 C 234.27 340.696 231.447 341.433 228.959 342.842 C 226.471 344.248 224.404 346.271 222.969 348.71 L 179.16 423.103 C 178.44 424.319 178.062 425.7 178.059 427.109 C 178.056 428.515 178.432 429.899 179.149 431.117 C 179.865 432.335 180.895 433.349 182.138 434.054 C 183.38 434.758 184.789 435.13 186.225 435.13 Z" fill="#0C0C0E" style=""/>
</svg>